<svg xmlns="http://www.w3.org/2000/svg" viewBox="0 0 760 418" width="760" height="418" role="img" aria-label="Air transmission against distance for four photon energies">
<style>
  .bg     { fill: #fbfbfa; stroke: #d8d6d1; }
  .ink    { fill: #1c1b19; }
  .muted  { fill: #6b6862; }
  .axis   { stroke: #b4b1ab; fill: none; }
  .grid   { stroke: #e6e4df; fill: none; }
  .curve  { stroke: #2f6f8f; fill: none; }
  .fill-a { fill: #2f6f8f; }
  .fill-b { fill: #b4551f; }
  .accent { stroke: #b4551f; fill: none; }
  .warn   { fill: #b4551f; }
  .band   { fill: #b4551f; }
  .box    { fill: none; stroke: #b4b1ab; }
  .s0 { stroke: #2f6f8f; fill: none; } .t0 { fill: #2f6f8f; }
  .s1 { stroke: #b4551f; fill: none; } .t1 { fill: #b4551f; }
  .s2 { stroke: #4d7c4d; fill: none; } .t2 { fill: #4d7c4d; }
  .s3 { stroke: #7a5aa0; fill: none; } .t3 { fill: #7a5aa0; }
  .s4 { stroke: #a03a5a; fill: none; } .t4 { fill: #a03a5a; }
  .s5 { stroke: #7a6a3a; fill: none; } .t5 { fill: #7a6a3a; }
  .s6 { stroke: #3a7a7a; fill: none; } .t6 { fill: #3a7a7a; }
  .s7 { stroke: #8a5a3a; fill: none; } .t7 { fill: #8a5a3a; }
  text    { font-family: -apple-system, BlinkMacSystemFont, "Segoe UI", Helvetica, Arial, sans-serif; }
  @media (prefers-color-scheme: dark) {
    .bg     { fill: #12161c; stroke: #2b3239; }
    .ink    { fill: #e6edf3; }
    .muted  { fill: #9aa4ae; }
    .axis   { stroke: #4a545e; }
    .grid   { stroke: #232a31; }
    .curve  { stroke: #6cb6d9; }
    .fill-a { fill: #6cb6d9; }
    .fill-b { fill: #e08a4c; }
    .accent { stroke: #e08a4c; }
    .warn   { fill: #e08a4c; }
    .band   { fill: #e08a4c; }
    .box    { stroke: #4a545e; }
    .s0 { stroke: #6cb6d9; } .t0 { fill: #6cb6d9; }
    .s1 { stroke: #e08a4c; } .t1 { fill: #e08a4c; }
    .s2 { stroke: #7fbf7f; } .t2 { fill: #7fbf7f; }
    .s3 { stroke: #b49ae0; } .t3 { fill: #b49ae0; }
    .s4 { stroke: #e07f9f; } .t4 { fill: #e07f9f; }
    .s5 { stroke: #c9b56a; } .t5 { fill: #c9b56a; }
    .s6 { stroke: #6ac9c9; } .t6 { fill: #6ac9c9; }
    .s7 { stroke: #d19a72; } .t7 { fill: #d19a72; }
  }
</style>
<rect class="bg" x="0.5" y="0.5" width="759" height="417" rx="6"/>
<line class="grid" x1="80.0" y1="263.7" x2="600.0" y2="263.7" stroke-width="1.2"/>
<text class="muted" x="71.0" y="267.2" font-size="10.5" text-anchor="end" font-weight="normal">40%</text>
<line class="grid" x1="80.0" y1="191.1" x2="600.0" y2="191.1" stroke-width="1.2"/>
<text class="muted" x="71.0" y="194.6" font-size="10.5" text-anchor="end" font-weight="normal">60%</text>
<line class="grid" x1="80.0" y1="118.6" x2="600.0" y2="118.6" stroke-width="1.2"/>
<text class="muted" x="71.0" y="122.1" font-size="10.5" text-anchor="end" font-weight="normal">80%</text>
<line class="grid" x1="80.0" y1="46.0" x2="600.0" y2="46.0" stroke-width="1.2"/>
<text class="muted" x="71.0" y="49.5" font-size="10.5" text-anchor="end" font-weight="normal">100%</text>
<line class="grid" x1="80.0" y1="46.0" x2="80.0" y2="300.0" stroke-width="1.2"/>
<text class="muted" x="80.0" y="318.0" font-size="10.5" text-anchor="middle" font-weight="normal">0</text>
<line class="grid" x1="210.0" y1="46.0" x2="210.0" y2="300.0" stroke-width="1.2"/>
<text class="muted" x="210.0" y="318.0" font-size="10.5" text-anchor="middle" font-weight="normal">5 m</text>
<line class="grid" x1="340.0" y1="46.0" x2="340.0" y2="300.0" stroke-width="1.2"/>
<text class="muted" x="340.0" y="318.0" font-size="10.5" text-anchor="middle" font-weight="normal">10 m</text>
<line class="grid" x1="470.0" y1="46.0" x2="470.0" y2="300.0" stroke-width="1.2"/>
<text class="muted" x="470.0" y="318.0" font-size="10.5" text-anchor="middle" font-weight="normal">15 m</text>
<line class="grid" x1="600.0" y1="46.0" x2="600.0" y2="300.0" stroke-width="1.2"/>
<text class="muted" x="600.0" y="318.0" font-size="10.5" text-anchor="middle" font-weight="normal">20 m</text>
<polyline class="s4" points="80.00,46.00 82.61,47.55 85.23,49.10 87.84,50.63 90.45,52.17 93.07,53.69 95.68,55.21 98.29,56.72 100.90,58.23 103.52,59.73 106.13,61.22 108.74,62.71 111.36,64.19 113.97,65.66 116.58,67.13 119.20,68.59 121.81,70.04 124.42,71.49 127.04,72.93 129.65,74.37 132.26,75.80 134.87,77.22 137.49,78.64 140.10,80.05 142.71,81.46 145.33,82.86 147.94,84.25 150.55,85.64 153.17,87.02 155.78,88.40 158.39,89.77 161.01,91.13 163.62,92.49 166.23,93.84 168.84,95.19 171.46,96.53 174.07,97.87 176.68,99.20 179.30,100.52 181.91,101.84 184.52,103.15 187.14,104.46 189.75,105.76 192.36,107.06 194.97,108.35 197.59,109.63 200.20,110.91 202.81,112.18 205.43,113.45 208.04,114.72 210.65,115.97 213.27,117.23 215.88,118.47 218.49,119.71 221.11,120.95 223.72,122.18 226.33,123.41 228.94,124.63 231.56,125.84 234.17,127.05 236.78,128.26 239.40,129.46 242.01,130.65 244.62,131.84 247.24,133.03 249.85,134.21 252.46,135.38 255.08,136.55 257.69,137.71 260.30,138.87 262.91,140.03 265.53,141.18 268.14,142.32 270.75,143.46 273.37,144.60 275.98,145.73 278.59,146.85 281.21,147.97 283.82,149.09 286.43,150.20 289.05,151.30 291.66,152.40 294.27,153.50 296.88,154.59 299.50,155.68 302.11,156.76 304.72,157.84 307.34,158.91 309.95,159.98 312.56,161.05 315.18,162.10 317.79,163.16 320.40,164.21 323.02,165.26 325.63,166.30 328.24,167.33 330.85,168.37 333.47,169.40 336.08,170.42 338.69,171.44 341.31,172.45 343.92,173.46 346.53,174.47 349.15,175.47 351.76,176.47 354.37,177.46 356.98,178.45 359.60,179.44 362.21,180.42 364.82,181.40 367.44,182.37 370.05,183.34 372.66,184.30 375.28,185.26 377.89,186.22 380.50,187.17 383.12,188.12 385.73,189.06 388.34,190.00 390.95,190.94 393.57,191.87 396.18,192.80 398.79,193.72 401.41,194.64 404.02,195.56 406.63,196.47 409.25,197.38 411.86,198.28 414.47,199.18 417.09,200.08 419.70,200.97 422.31,201.86 424.92,202.74 427.54,203.62 430.15,204.50 432.76,205.38 435.38,206.25 437.99,207.11 440.60,207.97 443.22,208.83 445.83,209.69 448.44,210.54 451.06,211.39 453.67,212.23 456.28,213.07 458.89,213.91 461.51,214.74 464.12,215.57 466.73,216.40 469.35,217.22 471.96,218.04 474.57,218.86 477.19,219.67 479.80,220.48 482.41,221.29 485.03,222.09 487.64,222.89 490.25,223.68 492.86,224.47 495.48,225.26 498.09,226.05 500.70,226.83 503.32,227.61 505.93,228.38 508.54,229.15 511.16,229.92 513.77,230.69 516.38,231.45 518.99,232.21 521.61,232.96 524.22,233.71 526.83,234.46 529.45,235.21 532.06,235.95 534.67,236.69 537.29,237.43 539.90,238.16 542.51,238.89 545.13,239.62 547.74,240.34 550.35,241.06 552.96,241.78 555.58,242.49 558.19,243.20 560.80,243.91 563.42,244.62 566.03,245.32 568.64,246.02 571.26,246.71 573.87,247.41 576.48,248.10 579.10,248.78 581.71,249.47 584.32,250.15 586.93,250.83 589.55,251.50 592.16,252.18 594.77,252.85 597.39,253.51 600.00,254.18" stroke-width="2.0" stroke-linejoin="round"/>
<text class="t4" x="608.0" y="258.2" font-size="11" text-anchor="start" font-weight="600">30 keV</text>
<polyline class="s3" points="80.00,46.00 82.61,46.73 85.23,47.46 87.84,48.18 90.45,48.91 93.07,49.63 95.68,50.36 98.29,51.08 100.90,51.80 103.52,52.51 106.13,53.23 108.74,53.95 111.36,54.66 113.97,55.37 116.58,56.08 119.20,56.79 121.81,57.50 124.42,58.21 127.04,58.91 129.65,59.61 132.26,60.32 134.87,61.02 137.49,61.72 140.10,62.42 142.71,63.11 145.33,63.81 147.94,64.50 150.55,65.19 153.17,65.88 155.78,66.57 158.39,67.26 161.01,67.95 163.62,68.63 166.23,69.32 168.84,70.00 171.46,70.68 174.07,71.36 176.68,72.04 179.30,72.72 181.91,73.39 184.52,74.07 187.14,74.74 189.75,75.41 192.36,76.08 194.97,76.75 197.59,77.42 200.20,78.09 202.81,78.75 205.43,79.42 208.04,80.08 210.65,80.74 213.27,81.40 215.88,82.06 218.49,82.72 221.11,83.37 223.72,84.03 226.33,84.68 228.94,85.33 231.56,85.98 234.17,86.63 236.78,87.28 239.40,87.92 242.01,88.57 244.62,89.21 247.24,89.86 249.85,90.50 252.46,91.14 255.08,91.78 257.69,92.41 260.30,93.05 262.91,93.69 265.53,94.32 268.14,94.95 270.75,95.58 273.37,96.21 275.98,96.84 278.59,97.47 281.21,98.10 283.82,98.72 286.43,99.34 289.05,99.97 291.66,100.59 294.27,101.21 296.88,101.83 299.50,102.44 302.11,103.06 304.72,103.67 307.34,104.29 309.95,104.90 312.56,105.51 315.18,106.12 317.79,106.73 320.40,107.34 323.02,107.94 325.63,108.55 328.24,109.15 330.85,109.76 333.47,110.36 336.08,110.96 338.69,111.56 341.31,112.15 343.92,112.75 346.53,113.35 349.15,113.94 351.76,114.53 354.37,115.13 356.98,115.72 359.60,116.31 362.21,116.89 364.82,117.48 367.44,118.07 370.05,118.65 372.66,119.23 375.28,119.82 377.89,120.40 380.50,120.98 383.12,121.56 385.73,122.13 388.34,122.71 390.95,123.29 393.57,123.86 396.18,124.43 398.79,125.01 401.41,125.58 404.02,126.15 406.63,126.71 409.25,127.28 411.86,127.85 414.47,128.41 417.09,128.98 419.70,129.54 422.31,130.10 424.92,130.66 427.54,131.22 430.15,131.78 432.76,132.34 435.38,132.89 437.99,133.45 440.60,134.00 443.22,134.55 445.83,135.11 448.44,135.66 451.06,136.21 453.67,136.75 456.28,137.30 458.89,137.85 461.51,138.39 464.12,138.94 466.73,139.48 469.35,140.02 471.96,140.56 474.57,141.10 477.19,141.64 479.80,142.18 482.41,142.71 485.03,143.25 487.64,143.78 490.25,144.31 492.86,144.85 495.48,145.38 498.09,145.91 500.70,146.44 503.32,146.96 505.93,147.49 508.54,148.02 511.16,148.54 513.77,149.06 516.38,149.59 518.99,150.11 521.61,150.63 524.22,151.15 526.83,151.66 529.45,152.18 532.06,152.70 534.67,153.21 537.29,153.73 539.90,154.24 542.51,154.75 545.13,155.26 547.74,155.77 550.35,156.28 552.96,156.79 555.58,157.30 558.19,157.80 560.80,158.31 563.42,158.81 566.03,159.31 568.64,159.82 571.26,160.32 573.87,160.82 576.48,161.31 579.10,161.81 581.71,162.31 584.32,162.80 586.93,163.30 589.55,163.79 592.16,164.29 594.77,164.78 597.39,165.27 600.00,165.76" stroke-width="2.0" stroke-linejoin="round"/>
<text class="t3" x="608.0" y="169.8" font-size="11" text-anchor="start" font-weight="600">80 keV</text>
<polyline class="s0" points="80.00,46.00 82.61,46.34 85.23,46.68 87.84,47.01 90.45,47.35 93.07,47.69 95.68,48.03 98.29,48.36 100.90,48.70 103.52,49.04 106.13,49.37 108.74,49.71 111.36,50.04 113.97,50.38 116.58,50.71 119.20,51.04 121.81,51.38 124.42,51.71 127.04,52.05 129.65,52.38 132.26,52.71 134.87,53.04 137.49,53.37 140.10,53.71 142.71,54.04 145.33,54.37 147.94,54.70 150.55,55.03 153.17,55.36 155.78,55.69 158.39,56.02 161.01,56.35 163.62,56.68 166.23,57.01 168.84,57.33 171.46,57.66 174.07,57.99 176.68,58.32 179.30,58.64 181.91,58.97 184.52,59.30 187.14,59.62 189.75,59.95 192.36,60.27 194.97,60.60 197.59,60.92 200.20,61.25 202.81,61.57 205.43,61.90 208.04,62.22 210.65,62.54 213.27,62.87 215.88,63.19 218.49,63.51 221.11,63.83 223.72,64.16 226.33,64.48 228.94,64.80 231.56,65.12 234.17,65.44 236.78,65.76 239.40,66.08 242.01,66.40 244.62,66.72 247.24,67.04 249.85,67.36 252.46,67.68 255.08,68.00 257.69,68.31 260.30,68.63 262.91,68.95 265.53,69.27 268.14,69.58 270.75,69.90 273.37,70.22 275.98,70.53 278.59,70.85 281.21,71.16 283.82,71.48 286.43,71.79 289.05,72.11 291.66,72.42 294.27,72.73 296.88,73.05 299.50,73.36 302.11,73.67 304.72,73.99 307.34,74.30 309.95,74.61 312.56,74.92 315.18,75.24 317.79,75.55 320.40,75.86 323.02,76.17 325.63,76.48 328.24,76.79 330.85,77.10 333.47,77.41 336.08,77.72 338.69,78.03 341.31,78.33 343.92,78.64 346.53,78.95 349.15,79.26 351.76,79.57 354.37,79.87 356.98,80.18 359.60,80.49 362.21,80.79 364.82,81.10 367.44,81.41 370.05,81.71 372.66,82.02 375.28,82.32 377.89,82.63 380.50,82.93 383.12,83.23 385.73,83.54 388.34,83.84 390.95,84.14 393.57,84.45 396.18,84.75 398.79,85.05 401.41,85.35 404.02,85.66 406.63,85.96 409.25,86.26 411.86,86.56 414.47,86.86 417.09,87.16 419.70,87.46 422.31,87.76 424.92,88.06 427.54,88.36 430.15,88.66 432.76,88.96 435.38,89.26 437.99,89.55 440.60,89.85 443.22,90.15 445.83,90.45 448.44,90.74 451.06,91.04 453.67,91.34 456.28,91.63 458.89,91.93 461.51,92.22 464.12,92.52 466.73,92.82 469.35,93.11 471.96,93.40 474.57,93.70 477.19,93.99 479.80,94.29 482.41,94.58 485.03,94.87 487.64,95.17 490.25,95.46 492.86,95.75 495.48,96.04 498.09,96.34 500.70,96.63 503.32,96.92 505.93,97.21 508.54,97.50 511.16,97.79 513.77,98.08 516.38,98.37 518.99,98.66 521.61,98.95 524.22,99.24 526.83,99.53 529.45,99.82 532.06,100.10 534.67,100.39 537.29,100.68 539.90,100.97 542.51,101.25 545.13,101.54 547.74,101.83 550.35,102.11 552.96,102.40 555.58,102.69 558.19,102.97 560.80,103.26 563.42,103.54 566.03,103.83 568.64,104.11 571.26,104.40 573.87,104.68 576.48,104.96 579.10,105.25 581.71,105.53 584.32,105.81 586.93,106.10 589.55,106.38 592.16,106.66 594.77,106.94 597.39,107.23 600.00,107.51" stroke-width="2.0" stroke-linejoin="round"/>
<text class="t0" x="608.0" y="111.5" font-size="11" text-anchor="start" font-weight="600">662 keV  (Ba-137m)</text>
<polyline class="s2" points="80.00,46.00 82.61,46.24 85.23,46.48 87.84,46.72 90.45,46.97 93.07,47.21 95.68,47.45 98.29,47.69 100.90,47.93 103.52,48.17 106.13,48.41 108.74,48.65 111.36,48.89 113.97,49.13 116.58,49.37 119.20,49.61 121.81,49.85 124.42,50.09 127.04,50.33 129.65,50.56 132.26,50.80 134.87,51.04 137.49,51.28 140.10,51.52 142.71,51.76 145.33,51.99 147.94,52.23 150.55,52.47 153.17,52.71 155.78,52.94 158.39,53.18 161.01,53.42 163.62,53.66 166.23,53.89 168.84,54.13 171.46,54.36 174.07,54.60 176.68,54.84 179.30,55.07 181.91,55.31 184.52,55.54 187.14,55.78 189.75,56.01 192.36,56.25 194.97,56.48 197.59,56.72 200.20,56.95 202.81,57.19 205.43,57.42 208.04,57.66 210.65,57.89 213.27,58.12 215.88,58.36 218.49,58.59 221.11,58.82 223.72,59.06 226.33,59.29 228.94,59.52 231.56,59.76 234.17,59.99 236.78,60.22 239.40,60.45 242.01,60.68 244.62,60.92 247.24,61.15 249.85,61.38 252.46,61.61 255.08,61.84 257.69,62.07 260.30,62.31 262.91,62.54 265.53,62.77 268.14,63.00 270.75,63.23 273.37,63.46 275.98,63.69 278.59,63.92 281.21,64.15 283.82,64.38 286.43,64.61 289.05,64.84 291.66,65.07 294.27,65.29 296.88,65.52 299.50,65.75 302.11,65.98 304.72,66.21 307.34,66.44 309.95,66.66 312.56,66.89 315.18,67.12 317.79,67.35 320.40,67.58 323.02,67.80 325.63,68.03 328.24,68.26 330.85,68.48 333.47,68.71 336.08,68.94 338.69,69.16 341.31,69.39 343.92,69.62 346.53,69.84 349.15,70.07 351.76,70.29 354.37,70.52 356.98,70.74 359.60,70.97 362.21,71.19 364.82,71.42 367.44,71.64 370.05,71.87 372.66,72.09 375.28,72.32 377.89,72.54 380.50,72.77 383.12,72.99 385.73,73.21 388.34,73.44 390.95,73.66 393.57,73.88 396.18,74.11 398.79,74.33 401.41,74.55 404.02,74.78 406.63,75.00 409.25,75.22 411.86,75.44 414.47,75.66 417.09,75.89 419.70,76.11 422.31,76.33 424.92,76.55 427.54,76.77 430.15,76.99 432.76,77.22 435.38,77.44 437.99,77.66 440.60,77.88 443.22,78.10 445.83,78.32 448.44,78.54 451.06,78.76 453.67,78.98 456.28,79.20 458.89,79.42 461.51,79.64 464.12,79.86 466.73,80.08 469.35,80.29 471.96,80.51 474.57,80.73 477.19,80.95 479.80,81.17 482.41,81.39 485.03,81.61 487.64,81.82 490.25,82.04 492.86,82.26 495.48,82.48 498.09,82.69 500.70,82.91 503.32,83.13 505.93,83.35 508.54,83.56 511.16,83.78 513.77,84.00 516.38,84.21 518.99,84.43 521.61,84.64 524.22,84.86 526.83,85.08 529.45,85.29 532.06,85.51 534.67,85.72 537.29,85.94 539.90,86.15 542.51,86.37 545.13,86.58 547.74,86.80 550.35,87.01 552.96,87.23 555.58,87.44 558.19,87.65 560.80,87.87 563.42,88.08 566.03,88.30 568.64,88.51 571.26,88.72 573.87,88.94 576.48,89.15 579.10,89.36 581.71,89.57 584.32,89.79 586.93,90.00 589.55,90.21 592.16,90.42 594.77,90.64 597.39,90.85 600.00,91.06" stroke-width="2.0" stroke-linejoin="round"/>
<text class="t2" x="608.0" y="95.1" font-size="11" text-anchor="start" font-weight="600">1333 keV  (Co-60)</text>
<line class="axis" x1="80.0" y1="300.0" x2="600.0" y2="300.0" stroke-width="1.4"/>
<line class="axis" x1="80.0" y1="46.0" x2="80.0" y2="300.0" stroke-width="1.4"/>
<text class="ink" x="80.0" y="24.0" font-size="13" text-anchor="start" font-weight="600">fraction of emitted photons surviving the air path</text>
<text class="muted" x="540.0" y="336.0" font-size="11" text-anchor="end" font-weight="normal">distance from the source →</text>
<text class="ink" x="80.0" y="358.0" font-size="12" text-anchor="start" font-weight="normal">At 20 m a 30 keV line has lost 57% of its photons and a 1333 keV line 12%.</text>
<text class="muted" x="80.0" y="378.0" font-size="11.5" text-anchor="start" font-weight="normal">The curves are not parallel, so their ratio depends on distance — which is exactly why one per-nuclide</text>
<text class="muted" x="80.0" y="396.0" font-size="11.5" text-anchor="start" font-weight="normal">exposure constant cannot be right at more than one distance, and why the store keeps whole spectra.</text>
</svg>
